<?xml version="1.0" standalone="no"?>
<!DOCTYPE svg PUBLIC "-//W3C//DTD SVG 20010904//EN"
 "http://www.w3.org/TR/2001/REC-SVG-20010904/DTD/svg10.dtd">
<svg version="1.0" xmlns="http://www.w3.org/2000/svg"
 width="982.000000pt" height="1280.000000pt" viewBox="0 0 982.000000 1280.000000"
 preserveAspectRatio="xMidYMid meet">
<metadata>
Created by potrace 1.15, written by Peter Selinger 2001-2017
</metadata>
<g transform="translate(0.000000,1280.000000) scale(0.100000,-0.100000)"
fill="#000000" stroke="none">
<path d="M5591 12771 c-179 -101 -398 -360 -610 -718 -103 -175 -269 -520
-426 -888 -155 -362 -205 -489 -205 -524 l0 -25 31 30 c17 16 95 108 172 204
131 162 201 239 548 610 164 176 386 425 506 568 l96 114 27 -44 c15 -23 68
-119 120 -213 51 -93 127 -219 168 -279 88 -125 237 -302 305 -362 l46 -41
-72 -49 c-235 -161 -439 -469 -515 -779 -21 -88 -24 -379 -3 -470 57 -256 180
-491 351 -669 152 -159 317 -262 538 -335 149 -49 249 -65 417 -64 365 1 687
134 936 385 210 212 329 457 380 781 28 183 -25 454 -136 683 -117 242 -357
477 -606 593 -177 82 -327 119 -514 128 l-131 6 -28 81 c-94 267 -279 530
-585 834 -346 343 -513 457 -686 468 -64 5 -75 2 -124 -25z"/>
<path d="M3492 9714 c-197 -28 -318 -76 -454 -176 -273 -201 -572 -555 -824
-973 -93 -155 -246 -456 -331 -650 -83 -190 -366 -904 -408 -1029 -31 -93 -37
-146 -15 -146 14 0 150 157 305 350 163 204 218 268 410 475 556 599 927 1011
1157 1286 78 93 147 169 154 169 6 0 146 -67 310 -148 189 -93 349 -165 434
-195 643 -223 1208 -259 1543 -96 153 74 264 202 333 385 l26 69 -63 59 c-176
166 -479 312 -850 410 -288 76 -785 166 -1134 206 -208 23 -451 25 -593 4z"/>
<path d="M9740 9456 c-36 -43 -125 -162 -199 -265 -162 -226 -174 -241 -531
-666 -465 -553 -609 -731 -837 -1032 l-131 -172 -128 132 c-71 73 -169 176
-219 230 -227 248 -604 523 -890 649 -171 76 -258 100 -386 105 -169 8 -265
-23 -356 -116 -65 -66 -113 -151 -153 -268 l-33 -98 39 -67 c169 -294 465
-577 858 -823 263 -164 663 -378 859 -459 255 -106 512 -130 645 -61 165 85
327 247 527 528 230 322 460 787 650 1312 79 218 284 822 326 960 31 101 38
137 32 160 l-9 30 -64 -79z"/>
<path d="M4709 6553 c-116 -61 -292 -181 -366 -248 -82 -73 -158 -187 -174
-261 -18 -78 0 -176 48 -272 143 -286 694 -614 1458 -871 220 -74 404 -122
775 -202 294 -63 548 -124 558 -134 3 -3 -107 -119 -244 -258 -395 -400 -608
-629 -1199 -1287 -224 -250 -481 -536 -571 -635 -89 -99 -277 -289 -417 -422
-217 -207 -319 -311 -457 -467 l-25 -29 51 6 c70 8 308 135 909 487 110 64
331 193 490 285 1130 656 1820 1146 2358 1674 332 326 519 577 583 783 24 79
8 168 -54 292 -39 80 -60 105 -161 206 -198 197 -469 370 -1117 713 -759 402
-1415 614 -2059 666 -299 24 -292 24 -386 -26z"/>
<path d="M4020 5452 c-89 -23 -149 -61 -248 -156 -118 -114 -271 -300 -548
-671 -262 -350 -313 -421 -839 -1170 -197 -280 -642 -908 -989 -1395 -1254
-1760 -1327 -1866 -1380 -2017 l-15 -43 57 29 c112 57 248 168 647 530 444
403 1038 959 1425 1336 96 94 344 332 550 529 797 762 1582 1575 1777 1839 65
89 139 247 169 362 22 84 26 121 26 235 0 117 -3 147 -27 225 -35 121 -67 175
-141 245 -128 119 -300 165 -464 122z"/>
</g>
</svg>
